<svg width="17" height="18" viewBox="0 0 17 18" fill="none" xmlns="http://www.w3.org/2000/svg">
<path d="M3 2.0625C3 1.51549 3.2173 0.990886 3.60409 0.604092C3.99089 0.217299 4.51549 0 5.0625 0H11.0625C11.6095 0 12.1341 0.217299 12.5209 0.604092C12.9077 0.990886 13.125 1.51549 13.125 2.0625V2.25H14.8125C15.537 2.25 16.125 2.838 16.125 3.5625V5.8125C16.125 6.65516 15.7913 7.46353 15.197 8.06085C14.6026 8.65817 13.7959 8.99584 12.9533 9C12.6888 9.98296 12.1345 10.8635 11.3625 11.5269C10.5905 12.1903 9.63655 12.6058 8.625 12.7192V14.25H10.6875C11.334 14.25 11.954 14.5068 12.4111 14.9639C12.8682 15.421 13.125 16.041 13.125 16.6875V17.0625C13.125 17.58 12.705 18 12.1875 18H3.9375C3.42 18 3 17.58 3 17.0625V16.6875C3 16.041 3.25681 15.421 3.71393 14.9639C4.17105 14.5068 4.79104 14.25 5.4375 14.25H7.5V12.7192C6.48835 12.6057 5.53435 12.1901 4.76232 11.5266C3.99029 10.863 3.43602 9.98235 3.17175 8.99925C2.32923 8.99509 1.52264 8.65753 0.928286 8.06037C0.333938 7.46321 0.000187956 6.65503 0 5.8125V3.5625C0 2.838 0.588 2.25 1.3125 2.25H3V2.0625ZM3 3.375H1.3125C1.26277 3.375 1.21508 3.39475 1.17992 3.42992C1.14475 3.46508 1.125 3.51277 1.125 3.5625V5.8125C1.12481 6.3277 1.31744 6.82432 1.665 7.20463C2.01256 7.58495 2.48986 7.82141 3.003 7.8675C3.00095 7.80752 2.99995 7.74751 3 7.6875V3.375ZM13.122 7.8675C13.6351 7.82141 14.1124 7.58495 14.46 7.20463C14.8076 6.82432 15.0002 6.3277 15 5.8125V3.5625C15 3.51277 14.9802 3.46508 14.9451 3.42992C14.9099 3.39475 14.8622 3.375 14.8125 3.375H13.125V7.6875C13.125 7.7475 13.1243 7.8075 13.122 7.8675ZM5.0625 1.125C4.545 1.125 4.125 1.545 4.125 2.0625V7.6875C4.125 8.20458 4.22685 8.7166 4.42472 9.19432C4.6226 9.67204 4.91264 10.1061 5.27827 10.4717C5.6439 10.8374 6.07796 11.1274 6.55568 11.3253C7.0334 11.5232 7.54542 11.625 8.0625 11.625C8.57958 11.625 9.0916 11.5232 9.56932 11.3253C10.047 11.1274 10.4811 10.8374 10.8467 10.4717C11.2124 10.1061 11.5024 9.67204 11.7003 9.19432C11.8982 8.7166 12 8.20458 12 7.6875V2.0625C12 1.545 11.58 1.125 11.0625 1.125H5.0625ZM4.125 16.6875V16.875H12V16.6875C12 16.3394 11.8617 16.0056 11.6156 15.7594C11.3694 15.5133 11.0356 15.375 10.6875 15.375H5.4375C5.0894 15.375 4.75556 15.5133 4.50942 15.7594C4.26328 16.0056 4.125 16.3394 4.125 16.6875Z" fill="#323232"/>
</svg>
