<svg width="33" height="18" viewBox="0 0 33 18" fill="none" xmlns="http://www.w3.org/2000/svg">
<path d="M32.0887 1.62078C32.0887 1.62078 31.8034 1.30379 31.4283 1.60229L19.9428 9.20473C19.1503 9.84663 18.062 9.84399 17.2695 9.19945L9.2682 1.47021C9.14405 1.36454 8.9565 1.38304 8.85348 1.50983C8.75045 1.63663 8.7663 1.82682 8.8931 1.93248L13.6294 7.13638L5.07339 16.4294C4.96508 16.5536 4.94659 16.6592 5.0232 16.7147C5.14471 16.8045 5.22131 17.0449 5.35868 16.9102L14.4853 8.07678L16.7782 10.5968C17.8163 11.5135 19.3299 11.5003 20.3549 10.5651L22.9093 8.59189L27.6377 16.617C27.7751 16.7517 27.8913 16.8045 28.0128 16.7147C28.0894 16.6592 28.4196 16.4691 28.3113 16.3449L23.9236 7.80734L31.7216 1.7872C31.8457 1.67889 32.0887 1.62078 32.0887 1.62078Z" fill="white"/>
<path d="M27.5874 17H5.599C5.03899 17 4.81445 16.6407 4.81445 16.1996L8.54435 1.8004C8.54435 1.35925 8.89568 1 9.3289 1H31.3173C31.7506 1 32.1019 1.35925 32.1019 1.8004L28.372 16.1996C28.372 16.6434 28.0207 17 27.5874 17V17Z" stroke="white" stroke-miterlimit="10"/>
<path d="M1 1.63397H6.69523M1 4.59253H5.08123M1 4.59253H4.30725M1 7.28694H2.65362" stroke="white" stroke-miterlimit="10" stroke-linecap="round" stroke-linejoin="round"/>
</svg>
