<svg width="48" height="62" viewBox="0 0 48 62" fill="none" xmlns="http://www.w3.org/2000/svg">
<path d="M27.7855 0C31.0915 7.80269 15.9318 12.5824 14.5217 19.0858C13.2318 25.054 23.5034 32.0549 23.5128 32.0549C21.9447 29.5861 20.8034 27.504 19.2377 23.6533C16.5849 17.1499 35.4019 11.2831 27.7855 0ZM37.8071 10.8327C37.8071 10.8327 24.5527 11.6698 23.8806 20.3379C23.5741 24.198 27.3799 26.2235 27.4908 29.0343C27.5851 31.3263 25.2059 33.2316 25.2059 33.2316C25.2059 33.2316 29.4715 32.4605 30.8062 28.9589C32.2799 25.0728 27.9341 22.4201 28.375 19.3051C28.7995 16.3317 37.8071 10.8327 37.8071 10.8327ZM41.0494 30.8005C39.6582 30.7368 38.0924 31.2532 36.7012 32.2742C39.4459 31.6682 41.7875 33.3896 41.7875 35.3703C41.7875 39.8105 35.4491 43.9912 35.4491 43.9912C35.4491 43.9912 45.249 42.8948 45.249 35.592C45.249 32.5784 43.3626 30.9113 41.0494 30.8005ZM15.0381 30.8759C11.6189 30.9938 4.79482 31.5574 4.79482 34.1913C4.79482 37.858 20.6926 38.1433 32.0606 35.8867C32.0606 35.8867 35.1543 33.7315 35.9655 32.9392C28.5142 34.486 11.501 34.7266 11.501 33.3801C11.501 32.1469 16.9528 30.8759 16.9528 30.8759C16.9528 30.8759 16.1793 30.8382 15.0381 30.8759ZM14.0053 37.6552C12.1353 37.6552 9.36231 39.1101 9.36231 40.5273C9.36231 43.3829 23.4397 45.5758 33.8291 41.4116L30.2166 39.2021C23.1709 41.5059 10.1546 40.7395 14.0053 37.6552ZM15.7738 44.0643C13.2224 44.0643 11.5741 45.6772 11.5741 46.8657C11.5741 50.5206 26.8187 50.8814 32.8694 47.1604L29.0376 44.6538C24.5244 46.5992 13.1682 46.8845 15.7738 44.0643ZM7.22594 47.3821C3.06404 47.2995 0.373535 49.186 0.373535 50.7682C0.373535 59.1957 43.0396 58.7925 43.0396 50.1787C43.0396 48.7521 41.3536 48.0706 40.7546 47.7476C44.2374 55.9818 5.90074 55.338 5.90074 50.4734C5.90074 49.3699 8.73744 48.264 11.3525 48.7804L9.14301 47.5259C8.50808 47.4335 7.86756 47.3846 7.22594 47.3797V47.3821ZM47.534 53.0555C41.0494 59.3278 24.6376 61.575 8.1102 57.6984C24.6352 64.6074 47.4514 60.7638 47.534 53.0555Z" fill="#00B4ED"/>
</svg>
