<svg width="16" height="16" viewBox="0 0 16 16" fill="none" xmlns="http://www.w3.org/2000/svg">
<path d="M11.6548 16C11.8672 16.0012 12.0778 15.9601 12.2742 15.8791C12.4706 15.798 12.6489 15.6787 12.7987 15.528L14.9664 13.3603C15.1154 13.2104 15.199 13.0076 15.199 12.7963C15.199 12.585 15.1154 12.3822 14.9664 12.2324L11.7668 9.03271C11.6169 8.88373 11.4142 8.8001 11.2028 8.8001C10.9915 8.8001 10.7888 8.88373 10.6389 9.03271L9.35903 10.3046C8.47293 10.0683 7.65226 9.63337 6.95929 9.03271C6.36025 8.33863 5.9255 7.51836 5.68742 6.63297L6.95929 5.35311C7.10827 5.20323 7.1919 5.00049 7.1919 4.78917C7.1919 4.57784 7.10827 4.3751 6.95929 4.22523L3.75963 1.02557C3.60975 0.876582 3.40701 0.792957 3.19569 0.792957C2.98436 0.792957 2.78162 0.876582 2.63175 1.02557L0.471976 3.20133C0.321298 3.35111 0.201961 3.5294 0.120931 3.7258C0.0399005 3.92219 -0.00120048 4.13276 2.66905e-05 4.34521C0.0725973 7.41872 1.30075 10.352 3.43966 12.5603C5.648 14.6993 8.58128 15.9274 11.6548 16ZM3.19969 2.72939L5.27147 4.80116L4.23958 5.83305C4.14184 5.9246 4.06866 6.03922 4.02673 6.1664C3.9848 6.29358 3.97547 6.42925 3.9996 6.56098C4.29858 7.89713 4.93159 9.13562 5.83941 10.1606C6.86358 11.0696 8.10239 11.7027 9.43902 12.0004C9.56875 12.0275 9.70318 12.022 9.83024 11.9843C9.9573 11.9466 10.073 11.8779 10.1669 11.7844L11.1988 10.7285L13.2706 12.8003L11.6708 14.4001C9.01805 14.3318 6.48694 13.2732 4.57554 11.4325C2.73007 9.52027 1.66834 6.98582 1.59986 4.32921L3.19969 2.72939ZM14.3985 7.20091H15.9983C16.0191 6.24981 15.847 5.30436 15.4926 4.42153C15.1381 3.5387 14.6086 2.73678 13.9359 2.06409C13.2632 1.3914 12.4613 0.861876 11.5785 0.507424C10.6956 0.152972 9.75019 -0.0190673 8.79909 0.00167553V1.60151C9.54134 1.57583 10.2809 1.7031 10.9719 1.97541C11.6629 2.24772 12.2904 2.65925 12.8156 3.18441C13.3407 3.70957 13.7523 4.33714 14.0246 5.0281C14.2969 5.71907 14.4242 6.45866 14.3985 7.20091Z" fill="white"/>
<path d="M8.79883 4.80115C10.4786 4.80115 11.1986 5.52108 11.1986 7.2009H12.7984C12.7984 4.62517 11.3746 3.20132 8.79883 3.20132V4.80115Z" fill="white"/>
</svg>
