<svg width="17" height="18" viewBox="0 0 17 18" fill="none" xmlns="http://www.w3.org/2000/svg">
<path d="M6.39 0C6.29452 0 6.20295 0.0379285 6.13544 0.105442C6.06793 0.172955 6.03 0.264522 6.03 0.36V1.08C6.03 1.17548 6.06793 1.26705 6.13544 1.33456C6.20295 1.40207 6.29452 1.44 6.39 1.44H6.93V2.3931C3.03552 2.8413 0 6.15762 0 10.17C0 14.4869 3.51306 18 7.83 18C12.1469 18 15.66 14.4869 15.66 10.17C15.6612 8.69243 15.2417 7.24507 14.4504 5.99724L15.2132 5.37966L15.5531 5.79942C15.5828 5.83618 15.6195 5.86672 15.661 5.8893C15.7026 5.91189 15.7482 5.92606 15.7952 5.93103C15.8422 5.93599 15.8897 5.93165 15.9351 5.91824C15.9804 5.90483 16.0227 5.88262 16.0594 5.85288L16.6192 5.39964C16.6933 5.33952 16.7405 5.25243 16.7505 5.15751C16.7604 5.0626 16.7322 4.96763 16.6721 4.89348L14.8599 2.655C14.8302 2.61824 14.7935 2.5877 14.7519 2.56512C14.7104 2.54253 14.6648 2.52836 14.6178 2.52339C14.5708 2.51843 14.5232 2.52277 14.4779 2.53618C14.4326 2.54959 14.3903 2.5718 14.3536 2.60154L13.7938 3.05478C13.7197 3.11491 13.6725 3.20199 13.6625 3.29691C13.6526 3.39182 13.6808 3.48679 13.7408 3.56094L14.0809 3.9807L13.3213 4.59522C12.1086 3.40038 10.5089 2.5983 8.73 2.39346V1.44H9.27C9.36548 1.44 9.45705 1.40207 9.52456 1.33456C9.59207 1.26705 9.63 1.17548 9.63 1.08V0.36C9.63 0.264522 9.59207 0.172955 9.52456 0.105442C9.45705 0.0379285 9.36548 0 9.27 0L6.39 0ZM7.83 3.6C11.466 3.6 14.4 6.534 14.4 10.17C14.4 13.806 11.466 16.74 7.83 16.74C4.194 16.74 1.26 13.806 1.26 10.17C1.26 6.534 4.194 3.6 7.83 3.6ZM7.83036 4.93974L7.83 10.17L12.0121 13.3105C12.5955 12.5336 12.9509 11.6096 13.0386 10.642C13.1263 9.67447 12.9428 8.70161 12.5086 7.83252C12.0744 6.96346 11.4067 6.2325 10.5804 5.72159C9.75412 5.21068 8.80185 4.93983 7.83036 4.93974Z" fill="#323232"/>
</svg>
