<svg width="16" height="16" viewBox="0 0 16 16" fill="none" xmlns="http://www.w3.org/2000/svg">
<path d="M7.18738 0C5.90269 0.018667 3.14263 0.229338 1.6006 1.6447C0.455246 2.79139 0.0512377 4.46676 0.00923684 6.5448C-0.032764 8.62217 -0.0874317 12.5176 3.66731 13.5736H3.66931L3.66664 15.1843C3.66664 15.1843 3.64198 15.8356 4.07332 15.969C4.59133 16.1303 4.896 15.6356 5.39334 15.101C5.66468 14.8076 6.04136 14.3783 6.3247 14.0476C8.89141 14.2649 10.8661 13.7703 11.0915 13.6976C11.6088 13.5296 14.5422 13.1536 15.0195 9.25952C15.5129 5.2461 14.7795 2.70605 13.4595 1.56203C13.0622 1.19536 11.4555 0.0286672 7.87606 0.0133336C7.87606 0.0133336 7.61272 -0.0033334 7.18471 0.00200004L7.18738 0ZM7.22605 1.12869C7.58939 1.12602 7.81273 1.14002 7.81273 1.14002C10.8408 1.15336 12.2908 2.06537 12.6275 2.37071C13.7442 3.3274 14.3142 5.61611 13.8982 8.96885V8.97018C13.4955 12.2222 11.1155 12.4262 10.6768 12.5669C10.4901 12.6269 8.75541 13.0583 6.5747 12.9163C6.5747 12.9163 4.95067 14.8763 4.44333 15.3856C4.36332 15.4656 4.26999 15.497 4.20865 15.4816C4.12199 15.4596 4.09798 15.3563 4.09865 15.2056L4.11199 12.5269C0.937255 11.6469 1.12193 8.33217 1.15859 6.5968C1.19459 4.86076 1.5206 3.43807 2.48929 2.48138C3.79598 1.29936 6.13869 1.13602 7.22938 1.12802L7.22605 1.12869ZM7.47939 2.86339C7.4277 2.866 7.37896 2.88828 7.34318 2.92567C7.30739 2.96305 7.28727 3.01272 7.28693 3.06447C7.28659 3.11622 7.30606 3.16614 7.34135 3.204C7.37664 3.24186 7.42507 3.26478 7.47672 3.26806C8.55941 3.27473 9.44076 3.62607 10.1621 4.32942C10.8775 5.02677 11.2421 5.97479 11.2508 7.21881C11.2521 7.33015 11.3441 7.41881 11.4555 7.41881C11.5088 7.41811 11.5596 7.39645 11.5971 7.35852C11.6345 7.32059 11.6555 7.26944 11.6555 7.21614C11.6461 5.89345 11.2435 4.81876 10.4448 4.04008C9.65143 3.26673 8.65007 2.87139 7.48005 2.86339H7.47939ZM4.83933 3.32673C4.69759 3.30711 4.55333 3.33451 4.42866 3.40473L4.42199 3.40607C4.13532 3.57074 3.87798 3.78074 3.65798 4.02741C3.65664 4.03008 3.65398 4.03008 3.65264 4.03275C3.47464 4.24808 3.37264 4.45809 3.34597 4.66476C3.34075 4.69558 3.33918 4.72691 3.3413 4.75809C3.3413 4.84876 3.35597 4.9381 3.38464 5.02477L3.3933 5.03143C3.48331 5.35144 3.70864 5.88212 4.19665 6.76747C4.47666 7.27948 4.79867 7.76749 5.16067 8.22483C5.34068 8.45417 5.53401 8.67351 5.74068 8.88084L5.82869 8.96885C6.03536 9.17418 6.25536 9.36885 6.4847 9.54886C6.94242 9.91093 7.42994 10.2336 7.94206 10.5135C8.82741 11.0022 9.35942 11.2269 9.67809 11.3176L9.68476 11.3269C9.80074 11.3648 9.92353 11.3773 10.0448 11.3636C10.2514 11.3396 10.4628 11.2369 10.6768 11.0569C10.6795 11.0569 10.6788 11.0556 10.6821 11.0536C10.9288 10.8335 11.1375 10.5735 11.3021 10.2882L11.3041 10.2815C11.4541 9.99353 11.4041 9.72019 11.1841 9.53486C11.1815 9.53486 10.7188 9.14818 10.4928 8.98151C10.2528 8.81151 10.0061 8.65351 9.75076 8.50817C9.41076 8.31817 9.06275 8.4375 8.91875 8.62417L8.62074 9.00018C8.4674 9.18885 8.18273 9.16418 8.18273 9.16418C6.10269 8.6335 5.54601 6.52746 5.54601 6.52746C5.54601 6.52746 5.52135 6.24346 5.71135 6.09012L6.08669 5.79145C6.27136 5.64811 6.3907 5.30011 6.20003 4.95943C6.05522 4.70362 5.89723 4.4555 5.72668 4.21608C5.54764 3.98179 5.36314 3.75173 5.17334 3.52607C5.08974 3.42138 4.97068 3.35094 4.83867 3.32807L4.83933 3.32673ZM7.83273 3.91341C7.77915 3.91182 7.72714 3.93158 7.68813 3.96833C7.64912 4.00509 7.62631 4.05584 7.62472 4.10942C7.62313 4.16299 7.64289 4.215 7.67964 4.25401C7.7164 4.29302 7.76715 4.31583 7.82073 4.31742C8.59407 4.37409 9.16542 4.62809 9.58409 5.0841C10.0041 5.54278 10.2041 6.10012 10.1881 6.79747C10.191 6.84874 10.2132 6.89703 10.2501 6.93269C10.2871 6.96835 10.3361 6.98877 10.3874 6.98986C10.4388 6.99096 10.4886 6.97265 10.5271 6.93859C10.5655 6.90454 10.5897 6.85723 10.5948 6.80614C10.6114 6.02279 10.3721 5.34411 9.88343 4.8101C9.39009 4.27008 8.69874 3.97475 7.85006 3.91274H7.83406L7.83273 3.91341ZM8.1414 5.0001C8.09006 5.00085 8.04091 5.021 8.00382 5.05649C7.96672 5.09198 7.94442 5.14019 7.94139 5.19144C7.93606 5.30277 8.0214 5.39811 8.1334 5.40477C8.48207 5.42344 8.71674 5.52144 8.87541 5.68611C9.03542 5.84945 9.13408 6.09945 9.15275 6.46213C9.15962 6.51239 9.18508 6.55826 9.22412 6.59066C9.26316 6.62306 9.31293 6.63964 9.3636 6.63713C9.41426 6.63461 9.46215 6.61319 9.49779 6.57709C9.53343 6.54098 9.55423 6.49283 9.55609 6.44213C9.53609 6.01279 9.41276 5.65678 9.16942 5.40411C8.92475 5.1521 8.57407 5.02143 8.15606 4.99943H8.14406L8.1414 5.0001Z" fill="white"/>
</svg>
